<?xml version="1.0" encoding="utf-8"?>
<!-- Generator: Adobe Illustrator 23.0.1, SVG Export Plug-In . SVG Version: 6.00 Build 0)  -->
<svg version="1.1" xmlns="http://www.w3.org/2000/svg" xmlns:xlink="http://www.w3.org/1999/xlink" x="0px" y="0px"
	 viewBox="0 0 200 76" style="enable-background:new 0 0 200 76;" xml:space="preserve">
<style type="text/css">
	.st0{fill:#178288;}
	.st1{fill:#757575;}
	.st2{fill-rule:evenodd;clip-rule:evenodd;fill:#757575;}
	.st3{fill:none;stroke:#000000;stroke-width:0.5;stroke-linecap:round;stroke-linejoin:round;}
	.st4{fill:#E03232;}
	.st5{stroke:#000000;stroke-width:3;stroke-miterlimit:10;}
	.st6{fill:none;stroke:#000000;stroke-width:3;stroke-linecap:round;stroke-linejoin:round;}
</style>
<g id="Word_Placeholder">
</g>
<g id="facebook">
</g>
<g id="account">
	<g>
		<path class="st0" d="M101.3,29.2c-3.2,0-3.2,3.2-3.2,6.5v9.2c0,3.3,0,6.5,3.2,6.5c3.1,0,3.1-3.2,3.1-6.5v-9.2
			C104.4,32.4,104.4,29.2,101.3,29.2z"/>
		<polygon class="st0" points="32.6,40.5 39.4,40.5 36,21.9 		"/>
		<path class="st0" d="M188,1H12C5.4,1,0,6.4,0,13v51c0,6.6,5.4,12,12,12h176c6.6,0,12-5.4,12-12V13C200,6.4,194.6,1,188,1z
			 M42.1,55l-1.9-10.4h-8.4l-2,10.4h-5.4l8.8-41.3h5.6L47.5,55H42.1z M67.4,36.2h-4.9v-1.8c0-3.8-0.7-5.2-3.1-5.2
			c-2.7,0-3.2,1.6-3.2,6.6v9.3c0,5,0.8,6.3,3.3,6.3c2.7,0,3-2.1,3-5.1v-2.4h4.9v2c0,6-1.7,9.5-8.1,9.5c-7.2,0-8.6-4.6-8.6-11.7v-6.8
			c0-7.4,1.5-11.8,8.6-11.8c6.4,0,8.1,3.2,8.1,9.3V36.2z M88.3,36.2h-4.9v-1.8c0-3.8-0.7-5.2-3.1-5.2c-2.7,0-3.2,1.6-3.2,6.6v9.3
			c0,5,0.8,6.3,3.3,6.3c2.7,0,3-2.1,3-5.1v-2.4h4.9v2c0,6-1.7,9.5-8.1,9.5c-7.2,0-8.6-4.6-8.6-11.7v-6.8c0-7.4,1.5-11.8,8.6-11.8
			c6.4,0,8.1,3.2,8.1,9.3V36.2z M109.9,44.6c0,6.6-2,10.9-8.6,10.9c-6.6,0-8.6-4.2-8.6-10.9V36c0-6.6,2-10.9,8.6-10.9
			c6.5,0,8.6,4.2,8.6,10.9V44.6z M131.8,55h-5.5v-2.9c-1.9,1.8-4.3,3.3-7.2,3.3c-3.5,0-4.4-3.2-4.4-6V25.6h5.5v22.2
			c0,2.1,0.5,3.4,2.3,3.4c1.2,0,2.6-0.8,3.8-1.8V25.6h5.5V55z M154.4,55h-5.5V32.8c0-2.1-0.5-3.3-2.3-3.3c-1.2,0-2.6,0.8-3.8,1.8V55
			h-5.5V25.6h5.5v2.9c1.9-1.8,4.3-3.3,7.2-3.3c3.5,0,4.4,3.2,4.4,6V55z M171.4,29.2h-4.7v18.9c0,2.3,0.6,3.2,2.7,3.2
			c0.5,0,1.3-0.1,2-0.2v4c-1.4,0.2-2.4,0.3-3.8,0.3c-4.6,0-6.4-2.8-6.4-7V29.2h-3.1v-3.6h3.1v-8.6h5.5v8.6h4.7V29.2z"/>
	</g>
</g>
<g id="home">
</g>
<g id="Email">
</g>
<g id="Instagram">
	<g id="Layer_13">
	</g>
</g>
<g id="Sign_Up">
</g>
<g id="Sign_In_1_">
</g>
<g id="Profile">
</g>
<g id="BOOK">
</g>
<g id="Update">
</g>
<g id="Twitter">
</g>
<g id="Upload">
</g>
<g id="trashcan">
</g>
<g id="arrow">
</g>
</svg>
