<svg viewBox="0 0 200 200" xmlns="http://www.w3.org/2000/svg"><g fill="#e03232"><path d="m54.8 73.81h-1.88v12.39h1.93c4 0 5.31-2 5.31-6 0-4.65-1.38-6.39-5.36-6.39z"/><path d="m188 36h-176a12 12 0 0 0 -12 12v51a12 12 0 0 0 12 12h176a12 12 0 0 0 12-12v-51a12 12 0 0 0 -12-12zm-131.51 56.58h-12.7v-41.31h10.76c7.09 0 13.16 1.63 13.16 10.81 0 5-2.3 7.6-6.07 8.32 4.79.6 7.36 4.07 7.36 9.94 0 8.57-4.56 12.24-12.51 12.24zm41.61-13c0 8.52-3.16 13.62-12.49 13.62s-12.39-5.1-12.39-13.62v-15.36c0-8.51 3.11-13.51 12.39-13.51s12.49 5 12.49 13.51zm29.89 0c0 8.52-3.16 13.62-12.5 13.62s-12.39-5.1-12.39-13.62v-15.36c0-8.51 3.11-13.51 12.39-13.51s12.5 5 12.5 13.51zm21.62 13-6-18.26-1 1.63v16.63h-9.13v-41.31h9.13v16.88l6.93-16.88h8.93l-7.65 18.67 8 22.64z"/><path d="m59.7 62.34c0-3.27-1.79-5-5.2-5h-1.58v10.4h1.78c4.13.05 5-1.93 5-5.4z"/><path d="m85.61 57.14c-2.71 0-3.06 2.39-3.06 4.84v19.89c0 2.34.2 4.84 3.06 4.84s3.16-2.5 3.16-4.84v-19.87c0-2.47-.31-4.86-3.16-4.86z"/><path d="m115.49 57.14c-2.7 0-3.06 2.39-3.06 4.84v19.89c0 2.34.21 4.84 3.06 4.84s3.16-2.5 3.16-4.84v-19.87c0-2.47-.3-4.86-3.16-4.86z"/></g></svg>