<svg xmlns="http://www.w3.org/2000/svg" viewBox="0 0 200 200"><defs><style>.cls-1{fill:#178288;}</style></defs><title>Home</title><g id="home"><path class="cls-1" d="M142.59,66.69c-2.65,0-3.21,1.58-3.21,6.68V75h6.27V72.3C145.65,68.68,145.29,66.69,142.59,66.69Z"/><path class="cls-1" d="M188,36H12A12,12,0,0,0,0,48V99a12,12,0,0,0,12,12H188a12,12,0,0,0,12-12V48A12,12,0,0,0,188,36ZM72.11,92.54H66.35V73.21H55.74V92.54H50V51.24h5.76V69.08H66.35V51.24h5.76ZM94.8,82.09c0,6.63-2,10.86-8.56,10.86s-8.62-4.23-8.62-10.86V73.52c0-6.63,2-10.86,8.62-10.86s8.56,4.23,8.56,10.86Zm34.33,10.45h-5V69.75c0-2.86-1-3.62-2.55-3.62A6.78,6.78,0,0,0,117,68.52v24h-5V69.75c0-2.86-1-3.62-2.55-3.62a6.88,6.88,0,0,0-4.59,2.39v24h-5V63.07h5v2.8a9.19,9.19,0,0,1,6.94-3.31,4.61,4.61,0,0,1,4.79,3.72,9.3,9.3,0,0,1,7.34-3.72c2.86,0,5.21,1.93,5.21,6.83ZM151,77.91H139.38v5.91c0,3.57,1,5.1,3.31,5.1s3-1.89,3-4.84V82.29H151v1.12c0,5.92-2.3,9.54-8.32,9.54-6.93,0-8.72-4.08-8.72-11.78V74.44c0-7.8,1.94-11.78,8.72-11.78,7.4,0,8.37,4.79,8.37,12.85Z"/><path class="cls-1" d="M86.24,66.69c-3.16,0-3.16,3.21-3.16,6.52v9.23c0,3.32,0,6.48,3.16,6.48s3.11-3.16,3.11-6.48V73.21C89.35,69.9,89.35,66.69,86.24,66.69Z"/></g></svg>