<svg xmlns="http://www.w3.org/2000/svg" viewBox="0 0 200 200"><defs><style>.cls-1{fill:#757575;fill-rule:evenodd;}</style></defs><title>Instagram</title><g id="Instagram"><g id="Layer_13" data-name="Layer 13"><path class="cls-1" d="M164.33,0H37.67A36.71,36.71,0,0,0,1,36.67V163.33A36.71,36.71,0,0,0,37.67,200H164.33A36.71,36.71,0,0,0,201,163.33V36.67A36.71,36.71,0,0,0,164.33,0ZM101,165.84A65.84,65.84,0,1,1,166.84,100,65.92,65.92,0,0,1,101,165.84ZM169,47.78A15.58,15.58,0,1,1,184.54,32.2,15.59,15.59,0,0,1,169,47.78Z"/><path class="cls-1" d="M101,62a38,38,0,1,0,38,38A38.06,38.06,0,0,0,101,62Z"/></g></g></svg>