<?xml version="1.0" encoding="utf-8"?>
<!-- Generator: Adobe Illustrator 23.0.1, SVG Export Plug-In . SVG Version: 6.00 Build 0)  -->
<svg version="1.1" xmlns="http://www.w3.org/2000/svg" xmlns:xlink="http://www.w3.org/1999/xlink" x="0px" y="0px"
	 viewBox="0 0 200 200" style="enable-background:new 0 0 200 200;" xml:space="preserve">
<style type="text/css">
	.st0{fill:#178288;}
	.st1{fill:#757575;}
	.st2{fill-rule:evenodd;clip-rule:evenodd;fill:#757575;}
	.st3{fill:none;stroke:#000000;stroke-width:0.5;stroke-linecap:round;stroke-linejoin:round;}
	.st4{fill:#E03232;}
	.st5{stroke:#000000;stroke-width:3;stroke-miterlimit:10;}
	.st6{fill:none;stroke:#000000;stroke-width:3;stroke-linecap:round;stroke-linejoin:round;}
</style>
<g id="Word_Placeholder">
</g>
<g id="facebook">
</g>
<g id="account">
</g>
<g id="home">
</g>
<g id="Email">
</g>
<g id="Instagram">
	<g id="Layer_13">
	</g>
</g>
<g id="Sign_Up">
</g>
<g id="Sign_In_1_">
</g>
<g id="Profile">
</g>
<g id="BOOK">
</g>
<g id="Update">
</g>
<g id="Twitter">
</g>
<g id="Upload">
</g>
<g id="trashcan">
</g>
<g id="arrow">
	<g>
		<g>
			<path d="M108.3,65.9c-0.3,0-0.5,0-0.7-0.1l-6.4,1.9l3.3,14.2c0,0,1.1,0.8,1.1,1.8c0,0.6-0.7,1.4-1.5,1.4c-0.9,0-2-0.7-2-1.5
				c0,0,0-0.1,0-0.3l-3.5-14.7c0,0-4.8,1.4-8.4,2.6c-1.7,0.5-3.5,1.3-5.4,2c0,0-1.8,3.5-2,5.1c-0.2,1.5-0.1,2.2-0.9,2.5
				c-0.3,0.1-0.5,0.2-0.8,0.2c-0.6,0-1.1-0.3-1.3-0.8c0-0.1,0-0.2,0-0.3c0-1.2,1-4.1,1.9-6.3c0,0-1.5-0.1-1.5-1.6
				c0-0.2,0-0.4,0.1-0.7c0.2-1,2.4-1.3,2.9-1.5l10.2-22.3c0.3-0.8,0.7-1.6,1.9-1.6c0.9,0,1.2,1.1,1.3,1.9c0.1,0.6,0.3,3,1.1,6
				c0.6,2.3,2,7.9,2.9,11.8l7-2.1c0,0,0.6-0.3,1.3-0.3c0.5,0,1.1,0.2,1.2,1.3C110,65.4,109.1,65.9,108.3,65.9z M96.2,59.1
				c-0.7-2.3-1.2-4.6-2-6.5c0,0-2.7,5-4.2,8.2c-1.5,3-3.7,8.3-3.7,8.3s3.9-0.7,7.1-1.5c1.8-0.4,3.2-0.8,4.7-1.3
				C98,66.2,97.3,63,96.2,59.1z"/>
		</g>
		<g>
			<path d="M68.4,115.7c-4.4,2.7-7.1,3.3-7.7,3.7c-0.2,0.1-0.6,0.2-1,0.2c-1.1,0-1.9-0.7-1.9-1.8c0-1.1,1.1-1.9,2-2.1
				c0.6-0.1,3.4-0.3,4.1-0.6c3.5-1.1,10.2-6.5,10.2-11.5c0-2.4-5.1-4.9-13.5-4.9c-2,0-6.3,0.7-8.4,1.7c0,0,0,1.3,0,2.9
				c0,5.6,0.2,5.5,0.6,7.2c0.3,1.4,0.5,1.9,0.5,2.6c0,0.4-0.1,0.8-0.2,1.4c-0.1,0.3-0.5,0.4-1.1,0.4c-0.9,0-2.1-0.4-2.2-0.9
				c-0.1-0.7-0.4-1.5-0.4-2.8c0-0.4,0-0.9,0.1-1.5c0-0.2,0-0.7,0-1.4c0-2.5-0.1-5.2-0.1-7.8c0-2.7,0.1-9.3,0.1-10.5
				c0,0-1.8,0-1.8-1.4v-0.2c0-1.3,0.7-1.8,1.7-2.5c0-1,0.6-2.2,1.9-2.2c0.9,0,1.1,0.7,1.2,1.1c0,0,9.6-3.1,15.6-3.1
				c1.3,0,4.1,0,4.1,2c0,1.7-1.5,3.8-2.4,4.7c-4.8,4.6-7.2,5.8-10,7.8c0,0,0.2,0,0.5,0c4.9,0,16.7,0.8,16.7,7.8
				C76.9,108.3,71.6,113.8,68.4,115.7z M67.8,84c-3.9,0-14.1,2.7-15.1,4.3c-0.5,0.8-0.7,3.4-0.7,5.5c0,1.8,0.1,3.3,0.1,3.3
				s5.4-2.7,8.6-4.8c6.2-4.1,8.7-6.8,8.7-7.8C69.3,84,68.4,84,67.8,84z"/>
		</g>
		<g>
			<path d="M134.9,115.4c-4.4,2.7-7.1,3.3-7.7,3.7c-0.2,0.1-0.6,0.2-1,0.2c-1.1,0-1.9-0.7-1.9-1.8c0-1.1,1.1-1.9,2-2.1
				c0.6-0.1,3.4-0.3,4.1-0.6c3.5-1.1,10.2-6.5,10.2-11.5c0-2.4-5.1-4.9-13.5-4.9c-2,0-6.3,0.7-8.4,1.7c0,0,0,1.3,0,2.9
				c0,5.6,0.2,5.5,0.6,7.2c0.3,1.4,0.5,1.9,0.5,2.6c0,0.4-0.1,0.8-0.2,1.4c-0.1,0.3-0.5,0.4-1.1,0.4c-0.9,0-2.1-0.4-2.2-0.9
				c-0.1-0.7-0.4-1.5-0.4-2.8c0-0.4,0-0.9,0.1-1.5c0-0.2,0-0.7,0-1.4c0-2.5-0.1-5.2-0.1-7.8c0-2.7,0.1-9.3,0.1-10.5
				c0,0-1.8,0-1.8-1.4V88c0-1.3,0.7-1.8,1.7-2.5c0-1,0.6-2.2,1.9-2.2c0.9,0,1.1,0.7,1.2,1.1c0,0,9.6-3.1,15.6-3.1c1.3,0,4.1,0,4.1,2
				c0,1.7-1.5,3.8-2.4,4.7c-4.8,4.6-7.2,5.8-10,7.8c0,0,0.2,0,0.5,0c4.9,0,16.7,0.8,16.7,7.8C143.4,107.9,138,113.5,134.9,115.4z
				 M134.3,83.7c-3.9,0-14.1,2.7-15.1,4.3c-0.5,0.8-0.7,3.4-0.7,5.5c0,1.8,0.1,3.3,0.1,3.3s5.4-2.7,8.6-4.8c6.2-4.1,8.7-6.8,8.7-7.8
				C135.8,83.7,134.9,83.7,134.3,83.7z"/>
		</g>
		<g>
			<path d="M101.1,139.1c-1,0-2.2-0.9-2.2-2.2c0-0.3,0.1-0.6,0.1-1.1c0-1-0.5-3.4-0.5-7.9l0-4.8c0-0.6,0-4.6-0.6-4.6
				c-0.9,0-4.6,6.9-6.8,12.9c-1.5,4-1.4,5.3-2,5.8c-0.2,0.1-0.6,0.2-0.9,0.2c-0.3,0-0.7-0.1-1.1-0.6c-0.2-0.3-0.3-0.8-0.3-1.6
				c0-1.6,0.3-4.5,0.4-9.8c0.1-4.7,0.5-8.3,0.6-9c0.1-0.8,0.6-1.1,1.1-1.1c0.6,0,1.3,0.4,1.6,0.8c0.1,0.2,0.2,0.4,0.2,0.8
				c0,1.1-0.5,3-0.5,5.9c0,1.4-0.1,2-0.1,2.7c0,0.2,0,0.5,0,0.9c0,0,5.3-11.4,8.4-11.4h0.2c2.3,0.5,2.6,5.1,2.6,11.6v5.7
				c0,2,0,2.9,0.1,3.2c0.3,0.7,0.8,1.6,0.8,2.4C102.3,138.5,101.9,139.1,101.1,139.1z"/>
		</g>
		<line class="st5" x1="55.6" y1="61.1" x2="133.4" y2="138.9"/>
		<line class="st5" x1="55.6" y1="138.9" x2="133.4" y2="61.1"/>
		<rect x="37.5" y="39.5" class="st6" width="114" height="114"/>
	</g>
</g>
</svg>
