<svg xmlns="http://www.w3.org/2000/svg" viewBox="0 0 200 75"><defs><style>.cls-1{fill:#178288;}</style></defs><title>Asset 3</title><g id="Layer_2" data-name="Layer 2"><g id="Word_Placeholder" data-name="Word Placeholder"><path class="cls-1" d="M63.71,29.46c-3.1,0-3.1,3.15-3.1,6.4v9c0,3.25,0,6.35,3.1,6.35s3.05-3.1,3.05-6.35v-9C66.76,32.61,66.76,29.46,63.71,29.46Z"/><path class="cls-1" d="M84.71,29.21c-3,0-3.55,2.4-3.55,6.6,0,3.6.5,6.4,3.5,6.4s3.45-2.35,3.45-6.4S87.71,29.21,84.71,29.21Z"/><path class="cls-1" d="M121,18.36c-4.55,0-5.4,2.75-5.4,7.25V43.36c0,4.5.85,7.45,5.4,7.45s5.35-3,5.35-7.45V25.61C126.36,21.11,125.51,18.36,121,18.36Z"/><path class="cls-1" d="M84.91,59.56c3.8,0,5.55-.85,5.55-2.85,0-1.75-.8-2.65-3.95-3L82,53.36c-1.1,1.1-2.15,2.2-2.15,3.6C79.81,58.71,81,59.56,84.91,59.56Z"/><path class="cls-1" d="M188,0H12A12,12,0,0,0,0,12V63A12,12,0,0,0,12,75H188a12,12,0,0,0,12-12V12A12,12,0,0,0,188,0ZM52.36,54.81h-16V14.31H42V50.76H52.36ZM72.11,44.56c0,6.5-2,10.65-8.4,10.65s-8.45-4.15-8.45-10.65v-8.4c0-6.5,2-10.65,8.45-10.65s8.4,4.15,8.4,10.65ZM92.66,36c0,5.9-2,10-8,10a12.55,12.55,0,0,1-2.75-.35,4.57,4.57,0,0,0-1,2.2c0,.75.7,1.15,2.4,1.3l4.5.4c4.55.4,6.7,2.7,6.7,7.05,0,4.75-3.3,7.2-10,7.2-5.25,0-9.2-1.55-9.2-5.45,0-2.75,2-4.55,4.15-5.55-1.9-.55-2.8-1.8-2.8-3.1,0-2.15,1.2-3.45,3.2-5.25-2.2-1.65-3.35-4-3.35-8.6,0-6.75,2.8-10.3,8.15-10.3,3.1,0,5,1.1,6,3.2a11.74,11.74,0,0,1,3.9-3l.8-.35,1.35,3.45a19.38,19.38,0,0,0-4.9,1.85A18.3,18.3,0,0,1,92.66,36Zm39.4,6.2c0,8-2.9,13.1-11,13.1s-11.1-5.1-11.1-13.15V26.76c0-8,2.9-12.8,11.1-12.8s11,4.85,11,12.8Zm21.65,12.65h-5.35V52a10.36,10.36,0,0,1-7.05,3.25c-3.45,0-4.35-3.1-4.35-5.9V25.91h5.35v21.8c0,2,.45,3.3,2.3,3.3a6.53,6.53,0,0,0,3.75-1.8V25.91h5.35Zm16.9-25.35H166V48c0,2.25.55,3.15,2.65,3.15a14.42,14.42,0,0,0,1.95-.15v3.95a23.08,23.08,0,0,1-3.7.3c-4.55,0-6.25-2.7-6.25-6.9V29.46h-3.05V25.91h3.05V17.46H166v8.45h4.65Z"/></g></g></svg>