<?xml version="1.0" encoding="utf-8"?>
<!-- Generator: Adobe Illustrator 23.0.1, SVG Export Plug-In . SVG Version: 6.00 Build 0)  -->
<svg version="1.1" xmlns="http://www.w3.org/2000/svg" xmlns:xlink="http://www.w3.org/1999/xlink" x="0px" y="0px"
	 viewBox="0 0 200 75" style="enable-background:new 0 0 200 75;" xml:space="preserve">
<style type="text/css">
	.st0{fill:#178288;}
	.st1{fill:#757575;}
	.st2{fill-rule:evenodd;clip-rule:evenodd;fill:#757575;}
	.st3{fill:none;stroke:#000000;stroke-width:0.5;stroke-linecap:round;stroke-linejoin:round;}
	.st4{fill:#E03232;}
	.st5{stroke:#000000;stroke-width:3;stroke-miterlimit:10;}
	.st6{fill:none;stroke:#000000;stroke-width:3;stroke-linecap:round;stroke-linejoin:round;}
</style>
<g id="Word_Placeholder">
	<g>
		<path class="st0" d="M63.7,29.5c-3.1,0-3.1,3.2-3.1,6.4v9.1c0,3.3,0,6.4,3.1,6.4c3.1,0,3.1-3.1,3.1-6.4v-9.1
			C66.8,32.6,66.8,29.5,63.7,29.5z"/>
		<path class="st0" d="M84.7,29.2c-3,0-3.5,2.4-3.5,6.6c0,3.6,0.5,6.4,3.5,6.4c3,0,3.5-2.4,3.5-6.4S87.7,29.2,84.7,29.2z"/>
		<path class="st0" d="M121,18.4c-4.6,0-5.4,2.8-5.4,7.3v17.8c0,4.5,0.8,7.5,5.4,7.5c4.5,0,5.4-3,5.4-7.5V25.6
			C126.4,21.1,125.5,18.4,121,18.4z"/>
		<path class="st0" d="M84.9,59.6c3.8,0,5.6-0.9,5.6-2.9c0-1.8-0.8-2.6-4-3L82,53.4c-1.1,1.1-2.2,2.2-2.2,3.6
			C79.8,58.7,81,59.6,84.9,59.6z"/>
		<path class="st0" d="M188,0H12C5.4,0,0,5.4,0,12v51c0,6.6,5.4,12,12,12h176c6.6,0,12-5.4,12-12V12C200,5.4,194.6,0,188,0z
			 M52.4,54.8h-16V14.3H42v36.5h10.4V54.8z M72.1,44.6c0,6.5-2,10.7-8.4,10.7c-6.5,0-8.5-4.1-8.5-10.7v-8.4c0-6.5,2-10.7,8.5-10.7
			c6.4,0,8.4,4.2,8.4,10.7V44.6z M92.7,36c0,5.9-2,10-8,10c-0.8,0-2-0.1-2.8-0.4c-0.4,0.6-1,1.5-1,2.2s0.7,1.1,2.4,1.3l4.5,0.4
			c4.6,0.4,6.7,2.7,6.7,7.1c0,4.8-3.3,7.2-10.1,7.2c-5.3,0-9.2-1.6-9.2-5.5c0-2.8,2-4.6,4.2-5.6c-1.9-0.5-2.8-1.8-2.8-3.1
			c0-2.1,1.2-3.5,3.2-5.3c-2.2-1.7-3.4-4-3.4-8.6c0-6.8,2.8-10.3,8.2-10.3c3.1,0,5,1.1,6,3.2c0.4-0.5,2-2.1,3.9-3l0.8-0.4l1.4,3.5
			c-1.3,0.3-4.4,1.4-4.9,1.9C92.2,31.8,92.7,34.3,92.7,36z M132.1,42.2c0,8-2.9,13.1-11.1,13.1c-8.3,0-11.1-5.1-11.1-13.2V26.8
			c0-8,2.9-12.8,11.1-12.8c8.2,0,11.1,4.9,11.1,12.8V42.2z M153.7,54.8h-5.4V52c-1.9,1.8-4.3,3.3-7,3.3c-3.5,0-4.4-3.1-4.4-5.9V25.9
			h5.4v21.8c0,2.1,0.5,3.3,2.3,3.3c1.2,0,2.6-0.8,3.8-1.8V25.9h5.4V54.8z M170.6,29.5H166V48c0,2.3,0.5,3.2,2.6,3.2
			c0.5,0,1.3,0,2-0.1v4c-1.3,0.2-2.3,0.3-3.7,0.3c-4.5,0-6.3-2.7-6.3-6.9V29.5h-3.1v-3.6h3.1v-8.5h5.4v8.5h4.6V29.5z"/>
	</g>
</g>
<g id="facebook">
</g>
<g id="account">
</g>
<g id="home">
</g>
<g id="Email">
</g>
<g id="Instagram">
	<g id="Layer_13">
	</g>
</g>
<g id="Sign_Up">
</g>
<g id="Sign_In_1_">
</g>
<g id="Profile">
</g>
<g id="BOOK">
</g>
<g id="Update">
</g>
<g id="Twitter">
</g>
<g id="Upload">
</g>
<g id="trashcan">
</g>
<g id="arrow">
</g>
</svg>
