<?xml version="1.0" encoding="utf-8"?>
<!-- Generator: Adobe Illustrator 23.0.1, SVG Export Plug-In . SVG Version: 6.00 Build 0)  -->
<svg version="1.1" xmlns="http://www.w3.org/2000/svg" xmlns:xlink="http://www.w3.org/1999/xlink" x="0px" y="0px"
	 viewBox="0 0 200 75" style="enable-background:new 0 0 200 75;" xml:space="preserve">
<style type="text/css">
	.st0{fill:#178288;}
	.st1{fill:#757575;}
	.st2{fill-rule:evenodd;clip-rule:evenodd;fill:#757575;}
	.st3{fill:none;stroke:#000000;stroke-width:0.5;stroke-linecap:round;stroke-linejoin:round;}
	.st4{fill:#E03232;}
	.st5{stroke:#000000;stroke-width:3;stroke-miterlimit:10;}
	.st6{fill:none;stroke:#000000;stroke-width:3;stroke-linecap:round;stroke-linejoin:round;}
</style>
<g id="Word_Placeholder">
</g>
<g id="facebook">
</g>
<g id="account">
</g>
<g id="home">
</g>
<g id="Email">
</g>
<g id="Instagram">
	<g id="Layer_13">
	</g>
</g>
<g id="Sign_Up">
	<g>
		<path class="st0" d="M73.5,29.1c-3.1,0-3.6,2.5-3.6,6.7c0,3.7,0.5,6.5,3.6,6.5c3.1,0,3.5-2.4,3.5-6.5S76.6,29.1,73.5,29.1z"/>
		<path class="st0" d="M73.7,60.1c3.9,0,5.7-0.9,5.7-2.9c0-1.8-0.8-2.7-4-3l-4.7-0.4c-1.1,1.1-2.2,2.3-2.2,3.7
			C68.5,59.3,69.7,60.1,73.7,60.1z"/>
		<path class="st0" d="M159,29.6c-1.4,0-2.8,0.7-3.7,1.5v18.9c1,0.8,2.3,1.3,3.9,1.3c2.8,0,3-3.5,3-7.8v-7.2
			C162.2,32.7,161.8,29.6,159,29.6z"/>
		<path class="st0" d="M188,0H12C5.4,0,0,5.4,0,12v51c0,6.6,5.4,12,12,12h176c6.6,0,12-5.4,12-12V12C200,5.4,194.6,0,188,0z
			 M40,55.7c-7.2,0-10.6-4.9-11-12.1l5.1-1.4c0.3,4.4,1.4,8.9,5.9,8.9c3,0,4.6-1.7,4.6-4.9c0-3.7-1.9-5.7-4.5-8l-7-6.1
			c-2.8-2.4-4-5-4-9.2c0-6.1,3.7-9.6,9.7-9.6c6.6,0,9.8,3.4,10.4,10.7l-4.9,1.3C44,21.4,43.1,18,38.8,18c-2.9,0-4.6,1.5-4.6,4.6
			c0,2.5,0.8,3.9,2.7,5.6l7,6.1c3.1,2.8,5.9,6.4,5.9,11.6C49.9,52,45.7,55.7,40,55.7z M59.8,55.3h-5.5V25.7h5.5V55.3z M59.8,21.3
			h-5.5v-5.7h5.5V21.3z M81.6,36c0,6-2,10.2-8.2,10.2c-0.9,0-2-0.2-2.8-0.4c-0.4,0.6-1,1.5-1,2.2c0,0.8,0.7,1.2,2.5,1.3l4.6,0.4
			c4.7,0.4,6.9,2.8,6.9,7.2c0,4.9-3.4,7.4-10.3,7.4c-5.4,0-9.4-1.6-9.4-5.6c0-2.8,2-4.7,4.2-5.7c-1.9-0.6-2.9-1.8-2.9-3.2
			c0-2.2,1.2-3.5,3.3-5.4c-2.3-1.7-3.4-4.1-3.4-8.8c0-6.9,2.9-10.5,8.3-10.5c3.2,0,5.1,1.1,6.1,3.3c0.4-0.5,2-2.1,4-3.1l0.8-0.4
			l1.4,3.5c-1.3,0.3-4.5,1.4-5,1.9C81.2,31.8,81.6,34.3,81.6,36z M105,55.3h-5.5V32.9c0-2.1-0.5-3.3-2.4-3.3c-1.2,0-2.6,0.8-3.8,1.8
			v23.8h-5.5V25.7h5.5v2.9c1.9-1.8,4.3-3.3,7.2-3.3c3.5,0,4.4,3.2,4.4,6V55.3z M144.2,41.3c0,8.7-2,14.4-11,14.4
			c-9.1,0-11-5.7-11-14.4V13.9h5.5v27.7c0,5.4,0.7,9.6,5.5,9.6s5.5-4.2,5.5-9.6V13.9h5.5V41.3z M167.7,43.6c0,6.3-1.5,12.1-7.4,12.1
			c-2.1,0-3.7-1.2-5-2.6V65h-5.5V25.7h5.5v2.4c1.3-1.5,3.1-2.8,5.6-2.8c6.2,0,6.8,7.6,6.8,11.1V43.6z"/>
	</g>
</g>
<g id="Sign_In_1_">
</g>
<g id="Profile">
</g>
<g id="BOOK">
</g>
<g id="Update">
</g>
<g id="Twitter">
</g>
<g id="Upload">
</g>
<g id="trashcan">
</g>
<g id="arrow">
</g>
</svg>
