<svg xmlns="http://www.w3.org/2000/svg" viewBox="0 0 200 200"><defs><style>.cls-1{fill:#757575;}</style></defs><title>Trashcan</title><g id="trashcan"><path class="cls-1" d="M156,41.49l-2.41,137.78v.23a12,12,0,0,1-12,12H65.43a12,12,0,0,1-12-12v-.26L51,41.49H156Zm-2.41,83.79,1.53-82.78h-8.77a12,12,0,0,1,7.24,11ZM60.65,42.5H51.88l1.53,82.77V53.5A12,12,0,0,1,60.65,42.5Z"/><path class="cls-1" d="M155.12,42.5l-1.53,82.78V53.5a12,12,0,0,0-7.24-11Z"/><path class="cls-1" d="M51.88,42.5h8.77a12,12,0,0,0-7.24,11v71.77Z"/><polygon class="cls-1" points="113.73 29 94.27 29 99.05 24.22 104 24.22 108.95 24.22 113.73 29"/><path class="cls-1" d="M94.27,29h19.46L109,24.22h-9.9Zm-.35,0,5-5,5,0,5,0,5,5H164V39H44V29Z"/></g></svg>