<svg xmlns="http://www.w3.org/2000/svg" viewBox="0 0 200 200"><defs><style>.cls-1{fill:#757575;}</style></defs><title>Twitter</title><g id="Twitter"><path class="cls-1" d="M175,0H25A25,25,0,0,0,0,25V175a25,25,0,0,0,25,25H175a25,25,0,0,0,25-25V25A25,25,0,0,0,175,0ZM149.7,74.55c.05,1.1.05,2.2.05,3.3,0,33.85-25.8,73-72.95,73a72.93,72.93,0,0,1-39.25-11.45,49.34,49.34,0,0,0,6.1.35,51.42,51.42,0,0,0,31.85-11,25.64,25.64,0,0,1-24-17.8,25.79,25.79,0,0,0,11.55-.45A25.69,25.69,0,0,1,42.55,85.3V85a25.93,25.93,0,0,0,11.6,3.2A25.74,25.74,0,0,1,46.2,53.9,72.81,72.81,0,0,0,99.05,80.7a28.34,28.34,0,0,1-.65-5.85A25.65,25.65,0,0,1,142.75,57.3a51,51,0,0,0,16.3-6.2,25.8,25.8,0,0,1-11.3,14.2,52,52,0,0,0,14.75-4A52.23,52.23,0,0,1,149.7,74.55Z"/></g></svg>