<?xml version="1.0" encoding="utf-8"?>
<!-- Generator: Adobe Illustrator 23.0.1, SVG Export Plug-In . SVG Version: 6.00 Build 0)  -->
<svg version="1.1" xmlns="http://www.w3.org/2000/svg" xmlns:xlink="http://www.w3.org/1999/xlink" x="0px" y="0px"
	 viewBox="0 0 200 75" style="enable-background:new 0 0 200 75;" xml:space="preserve">
<style type="text/css">
	.st0{fill:#178288;}
	.st1{fill:#757575;}
	.st2{fill-rule:evenodd;clip-rule:evenodd;fill:#757575;}
	.st3{fill:none;stroke:#000000;stroke-width:0.5;stroke-linecap:round;stroke-linejoin:round;}
	.st4{fill:#E03232;}
	.st5{stroke:#000000;stroke-width:3;stroke-miterlimit:10;}
	.st6{fill:none;stroke:#000000;stroke-width:3;stroke-linecap:round;stroke-linejoin:round;}
</style>
<g id="Word_Placeholder">
</g>
<g id="facebook">
</g>
<g id="account">
</g>
<g id="home">
</g>
<g id="Email">
</g>
<g id="Instagram">
	<g id="Layer_13">
	</g>
</g>
<g id="Sign_Up">
</g>
<g id="Sign_In_1_">
</g>
<g id="Profile">
</g>
<g id="BOOK">
</g>
<g id="Update">
	<g>
		<path class="st3" d="M-0.3,12.5v51c0,6.5,5.3,11.8,11.8,11.8h176c6.5,0,11.8-5.3,11.8-11.8v-51c0-6.5-5.3-11.8-11.8-11.8h-176
			C5,0.8-0.3,6-0.3,12.5z"/>
		<g>
			<path d="M34.2,40.9l0-27.4l5.5,0l0,27.6c0,5.4,0.7,9.6,5.5,9.6c4.8,0,5.5-4.2,5.5-9.6l0-27.6h5.5l0,27.4c0,8.7-2,14.4-11,14.4
				C36.1,55.2,34.2,49.5,34.2,40.9z"/>
			<path d="M61.7,25.3h5.5v2.3c1.3-1.5,3.1-2.8,5.6-2.8c6.2,0,6.7,7.5,6.7,11.1l0,7.1c0,6.3-1.5,12.1-7.3,12.1c-2.1,0-3.7-1.2-5-2.6
				l0,11.9h-5.5L61.7,25.3z M74.1,43.1l0-7.1c0-3.7-0.4-6.8-3.2-6.8c-1.4,0-2.8,0.7-3.7,1.5l0,18.9c1,0.8,2.3,1.3,3.9,1.3
				C73.9,50.9,74.1,47.4,74.1,43.1z"/>
			<path d="M83.9,43.2l0-5.7c0-6.7,1.2-12.6,7.2-12.6c2,0,3.6,1,4.9,2.3l0-13.7h5.5l0,41.3h-5.5v-1.9c-1.3,1.4-2.8,2.3-4.7,2.3
				C86.3,55.2,83.9,51.9,83.9,43.2z M96.1,49.8l0-19.3c-1-0.7-2.1-1.3-3.5-1.3c-2.5,0-3.2,2.8-3.2,6.2l0,8.3c0,4.1,0.4,7.2,3.3,7.2
				C93.7,50.9,94.9,50.5,96.1,49.8z"/>
			<path d="M106.4,48.4c0-7.3,5.3-9.5,11.6-12v-2.1c0-3.6-0.4-5.3-3-5.3c-2.2,0-3.1,1.6-3.1,4.2v1.5l-5.4-0.2
				c0.1-6.5,2.9-9.5,8.9-9.5c5.8,0,8.1,3.3,8.1,9.3l0,13.5c0,2.8,0.3,5.2,0.5,7.1h-5c-0.2-1.1-0.6-3-0.7-4.3c-0.7,2.3-2.6,4.7-6,4.7
				C108.9,55.2,106.4,51.8,106.4,48.4z M118,48v-8.4c-3.4,1.9-6.2,3.6-6.2,7c0,2.4,0.9,3.8,2.6,3.8C116.1,50.5,117.6,48.8,118,48z"
				/>
			<path d="M129.8,48.1l0-19.2l-3.1,0l0-3.6l3.1,0v-8.6h5.5v8.6l4.7,0l0,3.6l-4.7,0l0,18.9c0,2.3,0.6,3.2,2.7,3.2
				c0.5,0,1.3-0.1,2-0.2v4c-1.4,0.2-2.4,0.3-3.8,0.3C131.6,55.2,129.8,52.4,129.8,48.1z"/>
			<path d="M143.5,43.4l0-6.7c0-7.8,1.9-11.8,8.7-11.8c7.4,0,8.4,4.8,8.4,12.9l0,2.4l-11.6,0v5.9c0,3.6,1,5.1,3.3,5.1
				c2.4,0,3-1.9,3-4.8v-1.8h5.3v1.1c0,5.9-2.3,9.5-8.3,9.5C145.3,55.2,143.5,51.1,143.5,43.4z M155.2,37.2v-2.7
				c0-3.6-0.4-5.6-3.1-5.6c-2.7,0-3.2,1.6-3.2,6.7v1.6L155.2,37.2z"/>
		</g>
	</g>
</g>
<g id="Twitter">
</g>
<g id="Upload">
</g>
<g id="trashcan">
</g>
<g id="arrow">
</g>
</svg>
