<svg xmlns="http://www.w3.org/2000/svg" viewBox="0 0 200 200"><defs><style>.cls-1{fill:#178288;}</style></defs><title>Upload</title><g id="Upload"><path class="cls-1" d="M144.16,83.65c0,1.64.72,2.64,1.89,2.64A2.52,2.52,0,0,0,148,85.08V78.44C145.72,79.74,144.16,81.21,144.16,83.65Z"/><path class="cls-1" d="M94.4,69.91a2.93,2.93,0,0,0-1.94.84V85.88a3.44,3.44,0,0,0,1.81.63c1.3,0,1.81-1.22,1.81-2.73V72.43C96.08,71.05,95.57,69.91,94.4,69.91Z"/><path class="cls-1" d="M126.36,70.33c-1.35,0-1.77,1.14-1.77,2.94V83.44c0,1.85.42,2.94,1.77,2.94s1.72-1.09,1.72-2.94V73.27C128.08,71.42,127.7,70.33,126.36,70.33Z"/><path class="cls-1" d="M188,35H12A12,12,0,0,0,0,47V98a12,12,0,0,0,12,12H188a12,12,0,0,0,12-12V47A12,12,0,0,0,188,35ZM43,66V91H23V66H18L33,51,48,66ZM81.21,80c0,7.14-2.27,11-10.08,11S61.05,87.09,61.05,80V56.47h7.43V81.09c0,2.14.25,4.49,2.65,4.49s2.6-2.35,2.6-4.49V56.47h7.48Zm21.71,3.45c0,4.53-1.84,7.52-5.29,7.52a8.23,8.23,0,0,1-5.17-2.27v9.83H85.62V66.22h6.84V68a8.09,8.09,0,0,1,5.25-2.18c3.7,0,5.21,3.19,5.21,7.14Zm11,7.1h-6.8v-34h6.8ZM134.84,83c0,5.29-3.36,7.94-8.52,7.94s-8.49-2.65-8.49-7.94V73.74c0-5.3,3.28-7.94,8.49-7.94s8.52,2.64,8.52,7.94Zm14,7.52c-.17-1.31-.47-3.15-.55-3.45a4.87,4.87,0,0,1-4.66,3.87A5.66,5.66,0,0,1,138,85c0-6,5.42-7.94,10-9.53V73c0-1.26-.3-2.14-1.43-2.14s-1.47.84-1.51,1.93l-.17,1.77-6.39-.26c.26-5.84,3-8.52,8.7-8.52,4.91,0,7.35,3,7.35,7.31V84.45a34.61,34.61,0,0,0,.42,6Zm26.67,0h-6.85V88.61a7.05,7.05,0,0,1-4.79,2.31c-3.61,0-5.63-2.52-5.63-7.48v-10c0-4.5,1.89-7.6,5.63-7.6a7.24,7.24,0,0,1,4.79,1.93V56.47h6.85Z"/><path class="cls-1" d="M165.12,72.68V83.86c0,1.51.46,2.69,1.72,2.69a3.7,3.7,0,0,0,1.81-.63V70.58a4.16,4.16,0,0,0-1.76-.54C165.63,70,165.12,71.21,165.12,72.68Z"/></g></svg>