<?xml version="1.0" encoding="utf-8"?>
<!-- Generator: Adobe Illustrator 23.0.1, SVG Export Plug-In . SVG Version: 6.00 Build 0)  -->
<svg version="1.1" xmlns="http://www.w3.org/2000/svg" xmlns:xlink="http://www.w3.org/1999/xlink" x="0px" y="0px"
	 viewBox="0 0 200 77" style="enable-background:new 0 0 200 77;" xml:space="preserve">
<style type="text/css">
	.st0{fill:#178288;}
	.st1{fill:#757575;}
	.st2{fill-rule:evenodd;clip-rule:evenodd;fill:#757575;}
	.st3{fill:none;stroke:#000000;stroke-width:0.5;stroke-linecap:round;stroke-linejoin:round;}
	.st4{fill:#E03232;}
	.st5{stroke:#000000;stroke-width:3;stroke-miterlimit:10;}
	.st6{fill:none;stroke:#000000;stroke-width:3;stroke-linecap:round;stroke-linejoin:round;}
</style>
<g id="Word_Placeholder">
</g>
<g id="facebook">
</g>
<g id="account">
</g>
<g id="home">
</g>
<g id="Email">
</g>
<g id="Instagram">
	<g id="Layer_13">
	</g>
</g>
<g id="Sign_Up">
</g>
<g id="Sign_In_1_">
</g>
<g id="Profile">
	<g>
		<path class="st3" d="M0,13v51c0,6.6,5.4,12,12,12h176c6.6,0,12-5.4,12-12V13c0-6.6-5.4-12-12-12H12C5.4,1,0,6.4,0,13z"/>
		<g>
			<path d="M21.1,20.7h3.9l4.8,22.2l4.5-22.2h3.8l-6.6,30.1h-3.7L21.1,20.7z"/>
			<path d="M41.3,22h4v4.2h-4V22z M41.3,29.3h4v21.4h-4V29.3z"/>
			<path d="M49.1,42.5v-4.9c0-5.7,1.4-8.6,6.3-8.6c5.4,0,6.1,3.5,6.1,9.4v1.7h-8.5v4.3c0,2.6,0.7,3.7,2.4,3.7c1.8,0,2.2-1.4,2.2-3.5
				v-1.3h3.9v0.8c0,4.3-1.7,6.9-6,6.9C50.4,51,49.1,48.1,49.1,42.5z M57.6,37.9V36c0-2.6-0.3-4.1-2.2-4.1c-1.9,0-2.3,1.2-2.3,4.9
				v1.2H57.6z"/>
			<path d="M64.2,29.3h3.3l2.2,15.8l2.9-15.8h3L78.4,45l2.2-15.7h3.3l-3.6,21.4H77l-2.9-15.1l-2.9,15.1h-3.6L64.2,29.3z"/>
			<path d="M95.8,20.7h7.5c5.4,0,7.4,3.1,7.4,8.3c0,4.8-2.5,7.8-7.4,7.8H100v14h-4.2V20.7z M101.9,33.8c3.6,0,4.8-1,4.8-4.7
				c0-4.3-0.6-5.3-4.8-5.3h-2v10.1H101.9z"/>
			<path d="M113.4,29.3h4v3c1.6-2.6,3.2-3.3,4.8-3.3c0.2,0,0.3,0,0.6,0v4.4c-0.6-0.2-1.4-0.4-2.2-0.4c-1.2,0-2.2,0.4-3.2,2.1v15.7
				h-4V29.3z"/>
			<path d="M124.8,43.1v-6.2c0-4.8,1.5-7.9,6.3-7.9c4.8,0,6.2,3.1,6.2,7.9v6.2c0,4.8-1.5,7.9-6.2,7.9C126.3,51,124.8,48,124.8,43.1z
				 M133.4,43.4v-6.7c0-2.4,0-4.8-2.3-4.8c-2.3,0-2.3,2.3-2.3,4.8v6.7c0,2.4,0,4.7,2.3,4.7C133.4,48.1,133.4,45.8,133.4,43.4z"/>
			<path d="M142.2,32.2h-2.6v-2.9h2.6v-1.1c0-4.3,1.2-6.4,5.1-6.4c0.6,0,1.4,0,2.2,0.1v3c-0.5-0.1-1-0.1-1.4-0.1
				c-1.6,0-1.9,0.8-1.9,2.7v1.8h8.8v21.4h-4V32.2h-4.8v18.5h-4V32.2z M151.4,22h3.6v4.2h-3.6V22z"/>
			<path d="M159.6,20.7h4v30.1h-4V20.7z"/>
			<path d="M167.3,42.5v-4.9c0-5.7,1.4-8.6,6.3-8.6c5.4,0,6.1,3.5,6.1,9.4v1.7h-8.5v4.3c0,2.6,0.7,3.7,2.4,3.7
				c1.8,0,2.2-1.4,2.2-3.5v-1.3h3.9v0.8c0,4.3-1.7,6.9-6,6.9C168.6,51,167.3,48.1,167.3,42.5z M175.8,37.9V36c0-2.6-0.3-4.1-2.2-4.1
				c-1.9,0-2.3,1.2-2.3,4.9v1.2H175.8z"/>
		</g>
	</g>
</g>
<g id="BOOK">
</g>
<g id="Update">
</g>
<g id="Twitter">
</g>
<g id="Upload">
</g>
<g id="trashcan">
</g>
<g id="arrow">
</g>
</svg>
